PathFileType	4	(X/Y/Z) flx_0kg_2.trc																										
DataRate	CameraRate	NumFrames	NumMarkers	Units	OrigDataRate	OrigDataStartFrame	OrigNumFrames																					
100	100	29	9	mm	100	107	848																					
Frame#	Time	gu			centelbow			EpL			centpxt8			centijc7			ij			ts			aa			ai		
		X1	Y1	Z1	X2	Y2	Z2	X3	Y3	Z3	X4	Y4	Z4	X5	Y5	Z5	X6	Y6	Z6	X7	Y7	Z7	X8	Y8	Z8	X9	Y9	Z9  
106	1.06	-70.474	-19.928	166.334	-36.858	-262.235	200.117	-18.94	-252.214	224.975	-46.816	-153.158	-8.669	-46.816	31.938	-8.669	0	0	0	-138.845	23.155	55.99	-104.276	19.024	170.064	-151.59	-89.521	61.222
107	1.07	-70.748	-20.181	166.189	-34.176	-261.954	200.723	-16.453	-251.641	225.602	-46.816	-153.158	-8.669	-46.816	31.938	-8.669	0	0	0	-139.179	22.886	55.81	-104.523	19.059	169.868	-151.751	-89.797	61.299
108	1.08	-71.064	-20.317	166.64	-31.566	-261.519	201.936	-14.069	-250.919	226.854	-46.816	-153.158	-8.669	-46.816	31.938	-8.669	0	0	0	-139.504	22.374	55.803	-104.765	18.856	169.845	-151.946	-90.31	61.569
109	1.09	-71.295	-20.056	167.218	-28.728	-260.607	203.374	-11.469	-249.703	228.327	-46.816	-153.158	-8.669	-46.816	31.938	-8.669	0	0	0	-139.803	21.922	55.92	-104.966	18.722	169.941	-152.111	-90.761	61.969
110	1.1	-71.442	-19.283	167.204	-25.551	-259.081	204.286	-8.518	-247.849	229.249	-46.816	-153.158	-8.669	-46.816	31.938	-8.669	0	0	0	-140.067	21.774	56.031	-105.114	18.904	170.026	-152.18	-90.916	62.361
111	1.11	-71.658	-18.349	166.694	-22.372	-257.336	204.65	-5.555	-245.777	229.61	-46.816	-153.158	-8.669	-46.816	31.938	-8.669	0	0	0	-140.297	21.814	56.081	-105.22	19.278	170.045	-152.169	-90.886	62.682
112	1.12	-71.893	-18.03	166.542	-19.509	-256.232	205.271	-2.908	-244.382	230.239	-46.816	-153.158	-8.669	-46.816	31.938	-8.669	0	0	0	-140.446	21.829	56.149	-105.233	19.6	170.078	-152.085	-90.88	62.997
113	1.13	-71.779	-18.476	167.098	-16.623	-255.94	206.51	-0.247	-243.835	231.504	-46.816	-153.158	-8.669	-46.816	31.938	-8.669	0	0	0	-140.446	21.772	56.316	-105.077	19.803	170.201	-151.883	-90.944	63.377
114	1.14	-71.239	-18.944	167.72	-13.292	-255.643	207.719	2.863	-243.294	232.738	-46.816	-153.158	-8.669	-46.816	31.938	-8.669	0	0	0	-140.318	21.63	56.52	-104.774	19.894	170.355	-151.584	-91.091	63.779
115	1.15	-70.709	-18.895	167.8	-9.764	-254.753	208.313	6.182	-242.152	233.341	-46.816	-153.158	-8.669	-46.816	31.938	-8.669	0	0	0	-140.212	21.333	56.707	-104.479	19.829	170.486	-151.343	-91.388	64.177
116	1.16	-70.49	-18.625	167.6	-6.489	-253.583	208.622	9.262	-240.727	233.643	-46.816	-153.158	-8.669	-46.816	31.938	-8.669	0	0	0	-140.233	20.902	56.933	-104.293	19.641	170.65	-151.262	-91.813	64.634
117	1.17	-70.452	-18.59	167.61	-3.478	-252.622	209.174	12.081	-239.514	234.185	-46.816	-153.158	-8.669	-46.816	31.938	-8.669	0	0	0	-140.326	20.495	57.179	-104.141	19.486	170.821	-151.228	-92.216	65.12
118	1.18	-70.482	-18.752	167.76	-0.565	-251.818	209.902	14.799	-238.458	234.899	-46.816	-153.158	-8.669	-46.816	31.938	-8.669	0	0	0	-140.419	20.26	57.324	-103.942	19.536	170.875	-151.122	-92.452	65.518
119	1.19	-70.585	-18.853	167.741	2.325	-250.895	210.46	17.496	-237.28	235.438	-46.816	-153.158	-8.669	-46.816	31.938	-8.669	0	0	0	-140.569	20.17	57.302	-103.768	19.778	170.749	-151.024	-92.543	65.783
120	1.2	-70.657	-18.768	167.519	5.311	-249.732	210.746	20.296	-235.864	235.697	-46.816	-153.158	-8.669	-46.816	31.938	-8.669	0	0	0	-140.862	20.023	57.188	-103.721	19.989	170.525	-151.078	-92.688	65.986
121	1.21	-70.578	-18.391	167.318	8.547	-248.21	210.982	23.347	-234.09	235.902	-46.816	-153.158	-8.669	-46.816	31.938	-8.669	0	0	0	-141.211	19.712	57.23	-103.744	20.033	170.459	-151.22	-92.992	66.352
122	1.22	-70.321	-17.804	167.328	12.046	-246.4	211.417	26.647	-232.025	236.308	-46.816	-153.158	-8.669	-46.816	31.938	-8.669	0	0	0	-141.398	19.34	57.598	-103.632	20.02	170.727	-151.218	-93.354	67.049
123	1.23	-69.934	-17.428	167.476	15.627	-244.767	211.983	30.024	-230.142	236.849	-46.816	-153.158	-8.669	-46.816	31.938	-8.669	0	0	0	-141.419	18.953	58.08	-103.358	19.999	171.107	-151.056	-93.728	67.868
124	1.24	-69.519	-17.419	167.554	19.147	-243.493	212.421	33.339	-228.634	237.265	-46.816	-153.158	-8.669	-46.816	31.938	-8.669	0	0	0	-141.511	18.488	58.364	-103.138	19.893	171.281	-150.974	-94.178	68.486
125	1.25	-69.131	-17.413	167.488	22.675	-242.177	212.621	36.65	-227.096	237.454	-46.816	-153.158	-8.669	-46.816	31.938	-8.669	0	0	0	-141.733	18.015	58.486	-103.051	19.768	171.293	-151.009	-94.638	68.928
126	1.26	-68.728	-17.233	167.431	26.281	-240.625	212.75	40.014	-225.331	237.588	-46.816	-153.158	-8.669	-46.816	31.938	-8.669	0	0	0	-141.911	17.664	58.662	-102.95	19.771	171.367	-150.963	-94.978	69.413
127	1.27	-68.326	-17.079	167.557	29.854	-239.064	213.031	43.32	-223.573	237.893	-46.816	-153.158	-8.669	-46.816	31.938	-8.669	0	0	0	-142.003	17.385	58.895	-102.788	19.85	171.504	-150.808	-95.247	69.946
128	1.28	-67.963	-16.961	167.737	33.373	-237.481	213.411	46.552	-221.797	238.306	-46.816	-153.158	-8.669	-46.816	31.938	-8.669	0	0	0	-142.147	17.009	58.985	-102.675	19.828	171.496	-150.706	-95.613	70.335
129	1.29	-67.586	-16.614	167.676	37.036	-235.533	213.643	49.912	-219.642	238.565	-46.816	-153.158	-8.669	-46.816	31.938	-8.669	0	0	0	-142.394	16.473	58.858	-102.649	19.672	171.263	-150.689	-96.135	70.526
130	1.3	-67.203	-16	167.322	40.804	-233.197	213.626	53.378	-217.088	238.562	-46.816	-153.158	-8.669	-46.816	31.938	-8.669	0	0	0	-142.621	15.901	58.705	-102.603	19.551	170.999	-150.59	-96.693	70.74
131	1.31	-66.939	-15.404	166.944	44.365	-230.87	213.531	56.655	-214.551	238.474	-46.816	-153.158	-8.669	-46.816	31.938	-8.669	0	0	0	-142.751	15.478	58.679	-102.474	19.683	170.861	-150.319	-97.095	71.156
132	1.32	-66.824	-15.015	166.795	47.62	-228.786	213.584	59.641	-212.276	238.531	-46.816	-153.158	-8.669	-46.816	31.938	-8.669	0	0	0	-142.868	15.224	58.715	-102.337	20.077	170.78	-149.991	-97.319	71.711
133	1.33	-66.687	-14.821	166.846	50.831	-226.879	213.803	62.59	-210.188	238.754	-46.816	-153.158	-8.669	-46.816	31.938	-8.669	0	0	0	-142.986	14.894	58.789	-102.206	20.454	170.731	-149.652	-97.61	72.358
134	1.34	-66.364	-14.721	166.942	54.278	-224.974	214.099	65.773	-208.092	239.045	-46.816	-153.158	-8.669	-46.816	31.938	-8.669	0	0	0	-143.013	14.248	58.968	-102.008	20.564	170.787	-149.213	-98.206	73.152
